<svg width="83" height="80" viewBox="0 0 83 80" fill="none" xmlns="http://www.w3.org/2000/svg">
<path d="M50.2442 44.2895L48.7694 41.3016C48.5375 40.8318 48.089 40.506 47.5705 40.4306L44.2728 39.9515C42.9667 39.7617 42.4452 38.1569 43.3904 37.2358L45.7766 34.9101C46.1519 34.5443 46.3232 34.0173 46.2346 33.5008L45.6713 30.2169C45.4481 28.9162 46.8134 27.9244 47.9816 28.5385L50.9311 30.0889C51.395 30.3327 51.9492 30.3327 52.4131 30.0889L55.3626 28.5385C56.5308 27.9244 57.8962 28.9162 57.673 30.2169L57.1097 33.5008C57.021 34.0173 57.1923 34.5443 57.5677 34.9101L59.9538 37.2358C60.899 38.1569 60.3775 39.7617 59.0714 39.9515L55.7737 40.4306C55.255 40.5059 54.8067 40.8316 54.5748 41.3016L53.1 44.2895C52.516 45.473 50.8283 45.473 50.2442 44.2895Z" fill="#FFE266"/>
<path d="M50.8283 49.2277C50.7587 49.7161 50.5697 50.1944 50.2545 50.618L47.3593 54.5094C46.2661 55.979 44.4798 56.7344 42.6974 56.4806L39.1994 55.9826C37.417 55.7288 35.9125 54.505 35.273 52.7886L33.3981 47.9394L29.5958 52.9036C28.5883 54.2577 26.6739 54.5388 25.3197 53.5315C23.9654 52.5243 23.6843 50.61 24.6916 49.2558L27.5867 45.3644C28.6801 43.8947 30.4666 43.1394 32.2488 43.3932L35.7468 43.8912C37.5292 44.145 39.0337 45.3688 39.6733 47.0852L41.39 52.1171L45.3506 46.9703C46.3581 45.6163 48.2725 45.3351 49.6267 46.3425C50.5571 47.0345 50.9811 48.1551 50.8283 49.2277Z" fill="#78EAC4"/>
<path d="M33.4009 47.9292L33.5983 48.4399L35.2757 52.7785C35.8253 54.2537 37.0144 55.3644 38.4692 55.8089C39.3629 54.7078 40.2079 53.5685 41.0366 52.4163L41.1724 51.462L39.6757 47.075C39.0998 45.5299 37.8228 44.3842 36.2735 43.9858C35.4319 45.1709 34.2606 46.7577 33.4009 47.9292Z" fill="#71AFC4"/>
<path d="M38.869 57.2373C38.5348 57.2373 38.1975 57.1355 37.9063 56.9241C37.1734 56.3917 37.0109 55.3661 37.5434 54.6332L40.2283 50.9374C40.7608 50.2047 41.7866 50.0421 42.5195 50.5745C43.2525 51.1069 43.415 52.1325 42.8825 52.8654L40.1974 56.5612C39.8765 57.0029 39.3762 57.2373 38.869 57.2373Z" fill="#440A29"/>
<path d="M30.2194 20.8089C29.9827 21.2677 29.6314 21.6755 29.1742 21.9858L24.9739 24.8364C23.3877 25.9128 21.3623 26.0451 19.6878 25.1813L16.4017 23.4861C14.7273 22.6222 13.6612 20.8952 13.6195 18.9787L13.4346 13.541L7.9688 17.1395C6.50717 18.1315 4.51829 17.7507 3.52624 16.2895C2.53418 14.8282 2.9148 12.8396 4.37628 11.8475L8.57659 8.99704C10.1629 7.92046 12.1883 7.78831 13.8627 8.65205L17.1488 10.3473C18.8231 11.211 19.8892 12.9382 19.9308 14.8545L19.8965 20.4185L25.5816 16.6937C27.0431 15.7018 29.0321 16.0823 30.0242 17.5436C30.7059 18.5481 30.7394 19.8015 30.2194 20.8089Z" fill="#FFA585"/>
<path d="M13.4287 13.5384L13.4483 14.111L13.6136 18.9762C13.6494 20.6233 14.4424 22.1301 15.7277 23.0696C16.9898 22.2887 18.6751 21.2699 19.8907 20.4163L19.8951 19.7031L19.925 14.8523C19.8873 13.1271 19.0193 11.5555 17.6249 10.6289C16.385 11.5109 14.6816 12.6763 13.4287 13.5384Z" fill="#EF7C85"/>
<path d="M80.2371 79.2362L62.7946 36.2575C62.6246 35.8387 62.3213 35.482 61.9221 35.2699C55.0073 31.5997 31.4691 55.237 35.6666 61.8288C35.8485 62.1146 36.1169 62.335 36.4308 62.4624L79.5258 79.9476C79.9731 80.1291 80.4187 79.6836 80.2371 79.2362Z" fill="#EF8BBD"/>
<path d="M58.9994 39.2041L57.278 42.2942L60.4256 50.2415L63.7142 53.7542L63.5183 58.0503L65.6575 63.4512C66.7823 66.2913 63.9708 69.1025 61.1303 67.9778L37.1691 58.49C36.1114 57.4325 36.5177 55.4427 37.7853 53.1225C36.6871 54.8713 35.8761 56.5354 35.4685 57.9989L42.0107 64.7355L54.4669 69.7895L64.1207 70.7006L66.9485 74.8536L79.5297 79.9583C79.9772 80.1398 80.423 79.6941 80.2414 79.2467L77.1691 71.6766L72.9409 68.5465L73.946 63.7347L70.7293 55.8089L66.6001 52.1147L67.5687 48.0212L64.352 40.0953L58.9994 39.2041Z" fill="#C900AC"/>
<path d="M70.7271 55.7963L67.5665 48.0088L35.4667 57.9863C35.0336 59.5419 35.0559 60.8714 35.6735 61.8347C35.8546 62.1171 36.1216 62.3343 36.4325 62.4605L42.0085 64.723L70.7271 55.7963Z" fill="#A2CAFF" fill-opacity="0.3"/>
<path d="M42.0085 64.7235L48.1324 62.8201L37.6541 58.6711C37.1866 58.4859 36.8128 58.106 36.6708 57.6236L36.6679 57.6138L35.4667 57.9872C35.0336 59.543 35.0559 60.8723 35.6735 61.8356C35.8546 62.118 36.1216 62.3351 36.4325 62.4614C36.4325 62.4611 42.0085 64.7235 42.0085 64.7235Z" fill="#7F35B2"/>
<path d="M60.418 50.229L63.5107 58.0376L70.7217 55.7963L67.5611 48.0088L60.418 50.229Z" fill="#7F35B2"/>
<path d="M64.3479 40.0849L62.7946 36.2576C62.6245 35.8383 62.3206 35.4812 61.9207 35.2692C58.0764 33.2313 49.0982 39.6279 42.6013 46.8443L64.3479 40.0849Z" fill="#B4D4FF" fill-opacity="0.3"/>
<path d="M62.7962 36.2583C62.6237 35.8334 62.3136 35.4737 61.9071 35.2613C58.3447 33.3996 50.4131 38.7225 44.1084 45.2328C47.9098 41.5707 52.2401 38.6832 54.7838 38.8873C55.5222 38.9466 56.1521 39.4482 56.4248 40.1369L57.275 42.2837L64.349 40.0848L62.7962 36.2583Z" fill="#7F35B2"/>
<path d="M77.1673 71.6748L73.9442 63.7329L54.4651 69.7875L66.9467 74.8517L77.1673 71.6748Z" fill="#8BB6EF" fill-opacity="0.3"/>
<path d="M73.944 63.7329L65.5024 66.3569C64.7226 67.8164 62.9321 68.6901 61.1283 67.9759L60.7612 67.8305L54.4651 69.7875L66.9466 74.8518L77.1672 71.675L73.944 63.7329Z" fill="#7F35B2"/>
<path d="M13.0837 49.7468L10.167 48.1357C9.70819 47.8824 9.1541 47.871 8.68532 48.1051L5.70439 49.5941C4.52377 50.1839 3.17922 49.164 3.4291 47.8683L4.06023 44.5967C4.15952 44.0821 3.99923 43.5518 3.63148 43.1783L1.29391 40.8038C0.368102 39.8633 0.922667 38.2695 2.23243 38.1069L5.53934 37.696C6.05943 37.6313 6.5144 37.3151 6.75602 36.85L8.29231 33.8933C8.90073 32.7222 10.5881 32.7572 11.1476 33.9524L12.5603 36.9701C12.7825 37.4447 13.224 37.7797 13.7411 37.8658L17.0281 38.413C18.3301 38.6296 18.8183 40.245 17.8543 41.1464L15.4205 43.4221C15.0377 43.7802 14.8556 44.3034 14.9334 44.8216L15.4288 48.1165C15.6246 49.4215 14.2389 50.3848 13.0837 49.7468Z" fill="#FFE266"/>
<path d="M35.1021 10.7056L36.3231 8.19137C36.5151 7.79587 36.5002 7.33128 36.2834 6.94896L34.9042 4.518C34.3579 3.55514 35.153 2.3839 36.2497 2.53606L39.0184 2.92012C39.4538 2.98048 39.8912 2.82276 40.1879 2.49842L42.074 0.43563C42.8211 -0.381416 44.1807 0.0128117 44.3749 1.10258L44.8651 3.85423C44.9421 4.28705 45.2273 4.65412 45.6276 4.83599L48.1725 5.99214C49.1804 6.45006 49.2257 7.8648 48.249 8.38626L45.7833 9.70268C45.3955 9.9098 45.1343 10.2943 45.0851 10.7311L44.7718 13.5085C44.6478 14.6086 43.3161 15.0888 42.5183 14.3213L40.5042 12.3833C40.1874 12.0785 39.7409 11.9491 39.3102 12.0372L36.5717 12.5976C35.4869 12.8193 34.6186 11.7015 35.1021 10.7056Z" fill="#78EAC4"/>
<path d="M60.8312 18.8356C63.0977 18.8356 64.9351 16.9985 64.9351 14.7322C64.9351 12.466 63.0977 10.6289 60.8312 10.6289C58.5647 10.6289 56.7273 12.466 56.7273 14.7322C56.7273 16.9985 58.5647 18.8356 60.8312 18.8356Z" fill="#FFA585"/>
<path d="M45.9427 52.108C45.5916 52.108 45.2382 51.9959 44.9392 51.7643C44.2231 51.2096 44.0923 50.1794 44.6472 49.4634C44.977 49.0379 45.2873 48.6626 45.5959 48.3162C46.1985 47.6398 47.2355 47.5801 47.9117 48.1826C48.5881 48.785 48.648 49.8218 48.0453 50.4981C47.787 50.7879 47.5238 51.1067 47.2402 51.4724C46.9171 51.8895 46.4325 52.108 45.9427 52.108Z" fill="white"/>
<path d="M47.8333 60.5445C47.5501 60.5445 47.2632 60.4712 47.0015 60.3169C46.2212 59.8568 45.9618 58.8512 46.422 58.0712L46.9326 57.2057C47.3926 56.4255 48.3985 56.1658 49.1787 56.6262C49.959 57.0864 50.2184 58.092 49.7582 58.872L49.2476 59.7375C48.9418 60.2559 48.3949 60.5445 47.8333 60.5445Z" fill="white"/>
<path d="M76.7791 20.9937L78.1265 24.782C78.1841 24.9441 78.2984 25.0726 78.4424 25.1376L81.8084 26.6538C82.284 26.8681 82.284 27.6256 81.8084 27.8398L78.4424 29.3562C78.2984 29.4212 78.1841 29.5497 78.1265 29.7119L76.7791 33.5001C76.5887 34.0353 75.9155 34.0353 75.7252 33.5001L74.3778 29.7119C74.3201 29.5497 74.2059 29.4212 74.0618 29.3562L70.6958 27.8398C70.2202 27.6256 70.2202 26.8681 70.6958 26.6538L74.0618 25.1376C74.2059 25.0726 74.3201 24.9441 74.3778 24.782L75.7252 20.9937C75.9155 20.4585 76.5887 20.4585 76.7791 20.9937Z" fill="#BDF4E3"/>
<path d="M15.4904 58.8065L16.4899 61.6164C16.5326 61.7368 16.6175 61.8321 16.7244 61.8803L19.2213 63.005C19.5741 63.164 19.5741 63.7259 19.2213 63.8847L16.7244 65.0095C16.6175 65.0576 16.5328 65.153 16.4899 65.2733L15.4904 68.0832C15.3491 68.4802 14.8499 68.4802 14.7086 68.0832L13.7091 65.2733C13.6664 65.1529 13.5816 65.0576 13.4746 65.0095L10.9777 63.8847C10.6249 63.7259 10.6249 63.1638 10.9777 63.005L13.4746 61.8803C13.5816 61.8321 13.6662 61.7367 13.7091 61.6164L14.7086 58.8065C14.8499 58.4096 15.3491 58.4096 15.4904 58.8065Z" fill="#FEF2A8"/>
<path d="M35.7728 34.1282C36.881 32.9389 36.8152 31.0766 35.6257 29.9686C34.4362 28.8606 32.5736 28.9265 31.4654 30.1157C30.3571 31.305 30.423 33.1673 31.6125 34.2753C32.8019 35.3833 34.6646 35.3174 35.7728 34.1282Z" fill="#FFA585"/>
<path d="M73.9283 8.62282C74.6292 8.62282 75.1974 8.0547 75.1974 7.35389C75.1974 6.65308 74.6292 6.08496 73.9283 6.08496C73.2274 6.08496 72.6592 6.65308 72.6592 7.35389C72.6592 8.0547 73.2274 8.62282 73.9283 8.62282Z" fill="#FFE266"/>
</svg>
