<svg width="41" height="14" viewBox="0 0 41 14" fill="none" xmlns="http://www.w3.org/2000/svg">
<path d="M40.2858 3.0585L36.3352 13.2651H33.0083L31.3449 7.56531L29.6685 13.2651H26.3443L23.4229 5.65238H21.6036V9.08057C21.6036 10.6894 22.2533 10.9545 23.1422 10.9545C23.3777 10.9498 23.6121 10.9202 23.8414 10.8661L24.7511 13.2365C24.0425 13.4101 23.3155 13.4974 22.586 13.4964C19.5399 13.4964 18.2404 12.2515 18.2404 9.33788V5.65238H16.8524L13.9077 13.2651H10.5809L8.92005 7.56531L7.23844 13.2651H3.91422L0 3.0585H3.77127L5.73877 9.22612L7.61531 3.0585H10.2144L12.1091 9.22612L14.0662 3.0585H18.2404V1.22355L21.6036 0.503601V3.0585H26.2013L28.1663 9.22612L30.0428 3.0585H32.6419L34.5366 9.22612L36.4859 3.0585H40.2858Z" fill="#A8A8A9"/>
</svg>
