<svg width="37" height="31" viewBox="0 0 37 31" fill="none" xmlns="http://www.w3.org/2000/svg">
<g clip-path="url(#clip0_1_162)">
<path d="M7.02575 26.9658V24.4589C8.60552 24.4589 9.18754 24.3767 9.47856 26.3082H9.64485V24.1712H5.27968V24.4589H6.02799V30.0069H5.19653V30.2945H9.68642V28.0342H9.47856C9.27069 29.7603 8.81339 30.0069 7.5662 30.0069H6.98417V27.3356H7.31676C7.85721 27.3356 8.18979 27.6644 8.31451 28.6096H8.52238V25.8151H8.31451C8.31451 25.8151 8.27294 27.0069 7.31676 27.0069H7.02575V26.9658Z" fill="#C5281C"/>
<path d="M5.2381 27.0479H2.78529V27.3356H3.61675V29.3082C3.49203 29.8014 2.70214 30.0069 2.49428 30.0069C0.914501 30.0069 1.03922 27.7466 1.03922 27.1301C1.03922 26.5959 0.997647 24.2534 2.49428 24.2534C3.57517 24.2534 4.11562 25.2808 4.32349 26.226H4.48978C4.48978 25.8562 4.48978 24.0069 4.48978 24.0069C4.48978 24.0069 3.74147 24.5411 3.74147 24.5C3.74147 24.5 3.40888 24.0069 2.4527 24.0069C0.623489 24.0069 -0.083252 25.8151 -0.083252 27.089C-0.083252 28.2397 0.457197 30.2534 2.4527 30.2534C3.0763 30.2534 3.49203 29.9247 3.74147 29.5959L4.53135 30.2123V27.2945H5.19652V27.0479H5.2381Z" fill="#C5281C"/>
<path d="M33.8819 27.9932C33.6741 29.7192 33.2168 29.9658 31.9696 29.9658H31.8864V24.4589H32.6763V24.1712H30.0988V24.4589H30.8887V30.0069H30.2651L27.9786 24.0069H27.646C27.646 24.0069 25.7336 29.4315 25.7336 29.4726C25.7336 29.4726 25.6089 29.9247 25.2763 30.0069C24.9853 30.0069 25.0269 29.8836 25.0269 29.8014V28.7329C25.0269 28.4452 24.9853 27.8288 24.7359 27.5411C24.4033 27.2123 23.8628 27.2123 23.8628 27.1712C23.8628 27.1712 25.2763 26.8836 25.2763 25.5685C25.2763 24.6233 24.6112 24.1712 23.5303 24.1301H20.4539V24.4178H21.2437V29.9658H20.4539V30.2534H22.9898V29.9658H22.1999V27.2945H23.2393C25.0685 27.4589 22.9067 30.2534 25.3179 30.2534H26.8145V29.9658C26.7314 29.9658 26.1909 29.9658 26.1494 29.5959C26.1078 29.3082 26.5235 28.3219 26.5235 28.3219H28.6022C28.6022 28.3219 29.2258 29.9658 29.2673 29.9658H28.5606V30.2534H34.173V27.9932H33.8819ZM23.1977 27.0069H22.1999V24.4589H23.4887C24.237 24.5822 24.2786 25.4452 24.2786 25.6918C24.2786 26.3493 23.9876 27.0069 23.1977 27.0069ZM26.6898 28.0753L27.6044 25.4452L28.5606 28.0753H26.6898Z" fill="#C5281C"/>
<path d="M17.3774 24.4178C18.9572 24.4178 19.5808 24.3356 19.8302 26.2671H19.9965V24.1301H13.6774V24.4178H13.8437C14.0516 24.4178 14.592 24.4178 14.6336 24.911V28.4452L11.6819 24.1301H10.0605V24.4178H10.31C10.6426 24.4178 11.0583 24.4178 11.0999 24.911V29.4315C11.0999 29.8836 10.4347 30.0479 10.1437 30.0479V30.2534H12.3471V30.0479C12.0561 30.0479 11.3909 29.8836 11.3909 29.4315V25.4452C12.5549 27.089 14.7583 30.2534 14.7999 30.2534H14.9246V24.911C14.9662 24.4589 15.465 24.4178 15.7145 24.4178H16.4212V29.9658H15.5898V30.2534H20.0796V27.9932H19.8718C19.6639 29.7192 19.2066 29.9658 17.9594 29.9658H17.3774V27.2945H17.71C18.2504 27.2945 18.583 27.6233 18.7077 28.5685H18.9156V25.774H18.7077C18.7077 25.774 18.6662 26.9658 17.71 26.9658H17.419V24.4178H17.3774Z" fill="#C5281C"/>
<path d="M36.9583 24.4589V24.1301H34.4224V24.4589H35.2122V29.9658H34.4224V30.2534H36.9583V29.9658H36.1269V24.4589H36.9583Z" fill="#C5281C"/>
<path d="M30.2652 20.3493L31.0551 20.0616C32.1775 19.6096 32.3438 19.3219 32.2607 18.5822V15.6233C33.0921 17.7603 33.9236 19.2397 35.5449 19.2397C35.7528 19.2397 36.0022 19.1986 36.2517 19.1575L36.8753 19.0342L36.418 18.5411C36.127 18.2534 36.0022 18.0069 35.836 17.7192C35.7528 17.5959 35.7112 17.4726 35.6281 17.3493C35.2539 16.7329 34.3393 16.5274 33.591 16.8562C33.2584 16.1986 32.9258 15.3356 32.5101 14.2671L32.427 14.0616C32.3438 13.8973 32.3022 13.7329 32.2191 13.5685V13.5274C31.9697 12.9521 31.6787 12.4178 31.3876 11.8836C31.0966 11.3904 30.8056 10.9795 30.473 10.6096C29.6 9.62329 28.4775 9.00685 27.1056 8.76027C26.1494 8.59589 25.4843 8.5548 24.6112 8.5137C24.4449 8.5137 24.2371 8.5137 24.0708 8.4726C23.6966 8.43151 22.9067 8.39041 22.1169 8.30822C21.5764 8.26712 21.0775 8.22603 20.6618 8.18493C20.7034 8.06164 20.7034 7.93836 20.7034 7.81507C20.7034 7.65069 20.7034 7.4863 20.6618 7.36301H26.1494C27.5629 7.36301 28.6022 6.74658 29.1843 5.5137C30.5978 5.5137 31.5955 4.85616 32.2191 3.66438H32.427C33.882 3.66438 34.9213 3.00685 35.5449 1.69178L35.7528 1.32192H17.2112C16.0056 1.32192 14.9663 2.10274 14.5506 3.33562V3.37671C14.218 2.5137 13.6775 1.77397 12.9292 1.32192C11.8899 0.70548 10.7258 0.500001 9.81124 0.787672C9.52022 0.869864 9.18764 0.993152 8.9382 1.15754C8.73034 1.32192 8.39775 1.5274 8.18989 1.81507C7.94045 2.10274 7.73258 2.4726 7.56629 2.80137C7.44157 2.88356 7.35843 2.96575 7.31685 3.04795L7.10899 3.4589V3.5C6.85955 4.07534 6.52697 4.4863 6.27753 4.81507C6.02809 5.10274 6.02809 5.39041 6.02809 5.5548C6.06966 5.76027 6.15281 5.92466 6.27753 6.04795C6.19438 6.17123 6.15281 6.33562 6.15281 6.4589C6.15281 6.95206 6.56854 7.32192 7.10899 7.32192C7.48315 7.32192 7.81573 7.15754 8.14831 6.91096C8.27303 6.82877 8.64719 6.58219 8.77191 6.58219C8.9382 6.58219 9.06292 6.70548 9.06292 6.86986C9.06292 7.28082 8.56404 7.4863 8.18989 7.4863L7.44157 7.56849C6.90112 7.60959 6.65169 7.89726 6.65169 8.14384C6.65169 8.39041 6.7764 8.55479 6.85955 8.63699L6.90112 8.67808L7.10899 8.84247L6.23595 10.1575C5.65393 9.62329 4.98876 9.33562 4.40674 9.29452C4.03258 9.29452 3.7 9.37671 3.45056 9.62329C3.36742 9.70548 3.32584 9.74658 3.28427 9.82877C2.66067 9.82877 2.1618 10.1575 1.91236 10.5274C1.62135 10.9384 1.74607 11.637 2.07865 12.1712L0 12.7466V22.2808H37V20.3904H30.2652V20.3493ZM35.0461 17.7603C35.1292 17.8836 35.1708 18.0068 35.2539 18.089C35.3371 18.2123 35.4202 18.3356 35.5034 18.5C34.9213 18.4589 34.464 18.1301 34.0899 17.5548C34.4225 17.3904 34.8798 17.5137 35.0461 17.7603ZM27.0225 9.62329C28.2281 9.82877 29.1843 10.363 29.9326 11.1849C30.0989 11.3493 30.2236 11.5548 30.3899 11.7603C28.3944 11.5137 27.6876 11.226 26.5652 9.5411C26.7315 9.5411 26.8562 9.58219 27.0225 9.62329ZM26.1494 6.74658H22.3663C22.6989 6.4589 22.9483 6.08904 23.1562 5.67808H28.2697C27.8539 6.41781 27.1472 6.74658 26.1494 6.74658ZM29.1427 4.93836H25.3596C25.6921 4.65069 25.9831 4.28082 26.191 3.82877H31.3045C30.8888 4.56849 30.182 4.93836 29.1427 4.93836ZM29.4337 2.10274H34.5056C34.0067 2.76027 33.3416 3.08904 32.3854 3.08904H28.6022C28.9348 2.80137 29.2258 2.4726 29.4337 2.10274ZM8.81348 2.26712C8.9382 2.10274 9.14607 1.93836 9.35393 1.77397C9.52022 1.65069 9.76966 1.5274 10.0191 1.4863C10.3933 1.40411 10.809 1.40411 11.2247 1.4863L9.85281 2.30822C9.68652 2.30822 9.52022 2.26712 9.35393 2.26712C9.10449 2.26712 8.89663 2.26712 8.73034 2.30822C8.77191 2.30822 8.77191 2.30822 8.81348 2.26712ZM7.23371 8.18493C7.23371 8.14384 7.27528 8.10274 7.31685 8.10274L7.98202 8.14384C8.77191 8.10274 9.60337 7.77397 9.68652 6.95206C9.68652 6.37671 9.27079 5.84247 8.73034 5.84247C8.43933 5.84247 8.06517 6.04795 7.69101 6.29452C7.44157 6.4589 7.23371 6.58219 7.10899 6.58219C7.02584 6.58219 6.9427 6.5 6.9427 6.4589C6.9427 6.4589 6.9427 6.4589 6.9427 6.41781L7.35843 5.84247L6.98427 5.59589C6.90112 5.5548 6.7764 5.43151 6.7764 5.39041C6.7764 5.34932 6.81798 5.30822 6.81798 5.26712C6.98427 5.10274 7.15056 4.89726 7.31685 4.60959C7.44157 4.44521 7.48315 4.36301 7.64944 4.36301C7.81573 4.36301 7.98202 4.4863 7.98202 4.69178C7.98202 4.81507 8.10674 4.89726 8.27303 4.89726C8.43933 4.89726 8.52247 4.77397 8.60562 4.69178C8.60562 4.69178 8.97978 4.36301 8.77191 4.19863C8.56404 4.03425 7.64944 4.40411 7.89888 3.58219L7.98202 3.4589C8.06517 3.33562 8.52247 3.00685 9.39551 3.00685C9.5618 3.00685 9.72809 3.00685 9.93596 3.04795H10.0607L11.973 1.89726C11.973 1.93836 12.0146 1.97945 12.0146 1.97945C12.0978 2.5548 11.7652 3.21233 11.1831 3.5411L10.9337 3.66438L11.1 4.5274C10.6011 4.69178 10.2685 5.06164 10.2685 5.5137C10.2685 5.67808 10.3101 5.88356 10.3517 6.08904C10.3933 6.37671 10.4764 6.66438 10.4764 6.95206C10.4764 7.85616 9.22921 8.43151 8.18989 8.39041H8.14831C8.10674 8.39041 7.44157 8.34932 7.27528 8.22603C7.23371 8.26712 7.23371 8.22603 7.23371 8.18493ZM2.49438 10.9795C2.66067 10.7329 2.99326 10.5685 3.40899 10.6096L3.74157 10.6507L3.86629 10.363C3.90787 10.2808 3.94944 10.1986 3.99101 10.1575C4.07416 10.0753 4.24045 10.0342 4.40674 10.0342C4.86405 10.0342 5.44607 10.363 5.90337 10.8562C6.06966 11.0205 6.23595 11.2671 6.36067 11.4726C6.40225 11.5137 6.40225 11.5548 6.44382 11.5959C6.48539 11.637 6.52697 11.7192 6.52697 11.7192C6.52697 11.7603 6.7764 12.089 6.7764 12.1301C6.9427 11.9247 7.10899 11.6781 7.23371 11.4726V11.4315C7.19213 11.3493 7.10899 11.226 7.06742 11.1438L7.02584 11.1027C7.02584 11.1027 6.98427 11.0616 6.98427 11.0205C6.9427 10.9384 6.85955 10.8151 6.81798 10.774L7.81573 9.21233C8.06517 9.25343 8.27303 9.25342 8.39775 9.25342H8.43933C9.85281 9.25342 11.3079 8.43151 11.3079 7.11644V7.07534C11.3079 6.70548 11.2247 6.37671 11.1831 6.08904C11.1416 5.88356 11.1 5.71918 11.1 5.63699C11.1 5.4726 11.3079 5.30822 11.5989 5.30822H12.0562L11.8483 4.15753C12.4719 3.70548 12.8876 2.92466 12.8461 2.22603C13.5528 2.76027 14.0101 3.66438 14.0933 4.60959C14.1348 4.89726 14.0517 5.26712 13.9685 5.67808L13.927 5.84247C13.7607 6.5 13.5112 7.19863 13.3865 7.5274L13.2618 7.81507L13.5528 7.97945C14.0517 8.26712 14.3843 8.4726 14.3843 9.13014C14.3843 9.91096 13.6775 10.4863 13.0124 10.6096L12.0562 10.774L12.8461 11.3082C13.0955 11.4726 13.2618 11.7603 13.2618 12.0479C13.2618 12.5411 12.8461 12.911 12.3472 12.911H12.0562L11.973 13.1575C11.682 14.0616 11.391 14.5137 10.3933 14.637C10.3933 14.3493 10.3933 14.0616 10.3933 13.6918C10.3933 13.6096 10.3933 13.363 10.3933 13.2808L10.3517 12.4178L9.72809 13.0342C9.52022 13.2397 9.14607 13.4041 8.73034 13.4863V12.7466L4.36517 11.5959L2.82697 12.0068C2.49438 11.6781 2.41124 11.1027 2.49438 10.9795ZM1.24719 20.3493L4.40674 19.5274L7.56629 20.3493H1.24719ZM7.98202 19.6918L4.36517 18.7466L0.748315 19.6918V13.3219L4.36517 12.3767L7.98202 13.3219V19.6918ZM9.68652 18.4589C9.35393 18.911 9.31236 19.5685 9.5618 20.3493H8.77191V14.2671C9.06292 14.226 9.35393 14.1438 9.64494 14.0205C9.64494 14.2671 9.60337 14.5137 9.5618 14.7603C9.5618 14.8425 9.52022 14.8836 9.52022 14.9658L9.43708 15.4178H9.89438C10.5596 15.4178 11.0584 15.2945 11.4742 15.1301V17.6781C11.4742 17.7603 11.4326 17.8014 11.3494 17.8014H11.2247C10.5596 17.7603 9.97753 18.0069 9.68652 18.4589ZM18.0011 18.6233C17.7101 18.9521 17.4607 19.4863 17.627 20.3493H12.9292C13.4281 20.3082 13.8022 20.1849 14.0517 19.9384C14.3427 19.6096 14.3843 19.1986 14.3843 18.8699C14.3843 18.8288 14.4258 18.7466 14.6753 18.6233L15.091 18.4589L14.8416 18.089C14.4258 17.4726 14.6337 16.1575 14.7584 15.4178H14.8C16.3798 15.4178 17.4191 15.089 18.5 14.7603C18.791 14.6781 19.082 14.5959 19.373 14.4726C19.373 14.4726 19.7056 14.3904 20.1213 14.2671L21.6595 16.774V16.8151C21.8258 17.0205 21.8258 17.1849 21.5348 17.4726L20.7865 18.2945L19.5393 18.0479C18.9989 17.9658 18.3753 18.2123 18.0011 18.6233ZM18.4169 20.3493C18.2921 19.8151 18.3337 19.4041 18.5831 19.1164C18.8326 18.8288 19.1652 18.7877 19.4562 18.7877L20.9112 19.0342H20.9528H21.1607L22.2 17.9247C22.3663 17.7192 22.9067 17.1027 22.3663 16.3219L20.9944 14.1027C21.2022 14.0616 21.4517 14.0616 21.6595 14.0616C21.6595 14.0616 22.3663 14.0616 23.1146 14.4726C23.1978 14.6781 23.364 14.9658 23.4888 15.2945C23.7798 15.8699 24.1539 16.6096 24.2371 16.8973C24.2787 16.9795 24.3618 17.2671 24.0292 17.637L21.4101 20.3904H18.4169V20.3493ZM27.3966 20.3493H22.4079L24.5281 18.1301C24.9438 17.6781 25.1101 17.1438 24.9022 16.6507C24.8191 16.363 24.5281 15.7877 24.2371 15.1712C25.0685 15.5411 26.3573 15.911 28.9764 16.1164C29.309 16.1575 29.3921 16.2397 29.4337 16.5274L29.5584 17.637L28.1865 17.9247C27.7292 18.0069 27.3551 18.2945 27.1888 18.7466C27.0225 19.2397 27.1056 19.8151 27.3966 20.3493ZM27.9371 19.0342C28.0202 18.8288 28.1449 18.7055 28.3528 18.6644L30.3899 18.2123L30.2236 16.4041V16.363C30.182 16.1164 30.0157 15.4178 29.0596 15.3356C25.4011 15.0479 24.5697 14.5137 23.6551 13.9384L23.6135 13.8973C22.6573 13.2808 21.7011 13.2808 21.618 13.2808C20.5787 13.2808 19.2899 13.6918 19.1652 13.7329C18.8326 13.8151 18.5416 13.9384 18.2506 14.0205C17.0865 14.3904 16.1303 14.7192 14.4674 14.637H14.1764L14.0933 14.9247C14.0517 15.1301 13.5528 16.9795 14.0101 18.1301C13.5944 18.4589 13.5944 18.7877 13.5944 18.8699C13.5944 19.2808 13.5112 19.363 13.4697 19.4041C13.2618 19.6096 12.6382 19.6096 12.0978 19.6096H11.8899L11.7652 19.774C11.4326 20.226 10.7258 20.3493 10.2685 20.226C10.0607 19.6096 10.0607 19.1575 10.2685 18.8699C10.518 18.5411 10.9753 18.5 11.1831 18.5H11.3079C11.8067 18.5 12.1809 18.089 12.1809 17.637V14.3904C12.3472 14.1849 12.4303 13.8973 12.5551 13.6096C13.3449 13.4863 13.9685 12.8288 13.9685 12.0068C13.9685 11.6781 13.8854 11.3904 13.7191 11.1438C14.4674 10.774 15.091 10.0753 15.091 9.13014C15.091 8.18493 14.5921 7.73288 14.1348 7.4863C14.2596 7.11644 14.4674 6.5 14.6337 5.84247L15.2573 3.58219C15.5483 2.67808 16.2966 2.10274 17.1697 2.10274H28.4775C27.9787 2.76027 27.3135 3.08904 26.3573 3.08904H19.5809L19.2067 3.82877H25.3596C24.8607 4.56849 24.1539 4.93836 23.1562 4.93836H18.7079L18.3337 5.67808H22.2831C21.7843 6.41781 21.1191 6.74658 20.1213 6.74658H17.7101L17.336 7.4863H19.8719C19.9135 7.5274 19.9551 7.65069 19.9551 7.93836C19.9551 8.43151 19.5393 8.80137 19.0404 8.80137C18.8742 8.80137 18.7079 8.76027 18.4584 8.63699C18.3337 8.59589 18.2506 8.5548 18.1258 8.5137L17.5438 9.04795C17.6685 9.08904 17.7517 9.13014 17.8764 9.17123C18.3753 9.37671 18.6663 9.5 19.0404 9.5C19.4978 9.5 19.9135 9.29452 20.2461 9.00685C20.6618 9.04795 21.3685 9.08904 22.0753 9.13014C22.9067 9.21233 23.6551 9.25342 24.0708 9.29452C24.2787 9.29452 24.4449 9.29452 24.6528 9.33562C24.9854 9.33562 25.318 9.37671 25.609 9.37671C27.1472 11.8425 27.9371 12.1712 30.9303 12.5411C31.1382 12.911 31.3461 13.3219 31.5124 13.7329V18.5411V18.5822C31.5124 18.7877 31.5124 18.8699 31.5124 18.911C31.3876 19.0342 30.9303 19.2397 30.8056 19.2808L28.2697 20.3082C27.9371 19.8562 27.8124 19.4041 27.9371 19.0342Z" fill="#C5281C"/>
<path d="M7.192 14.3082L4.78076 13.6918V14.4726L7.192 15.089V14.3082Z" fill="#C5281C"/>
<path d="M1.57959 15.089L3.99083 14.4726V13.6918L1.57959 14.3082V15.089Z" fill="#C5281C"/>
<path d="M1.57959 16.6507L3.99083 16.0342V15.2534L1.57959 15.8699V16.6507Z" fill="#C5281C"/>
<path d="M7.192 15.8699L4.78076 15.2534V16.0342L7.192 16.6507V15.8699Z" fill="#C5281C"/>
<path d="M7.192 17.4315L4.78076 16.8151V17.5959L7.192 18.2123V17.4315Z" fill="#C5281C"/>
<path d="M1.57959 18.2123L3.99083 17.5959V16.8151L1.57959 17.4315V18.2123Z" fill="#C5281C"/>
</g>
<defs>
<clipPath id="clip0_1_162">
<rect width="37" height="30" fill="white" transform="translate(0 0.5)"/>
</clipPath>
</defs>
</svg>
