<svg width="223" height="33" viewBox="0 0 223 33" fill="none" xmlns="http://www.w3.org/2000/svg">
<g clip-path="url(#clip0_1_161)">
<path d="M7.02575 27.9658V25.4589C8.60552 25.4589 9.18754 25.3767 9.47856 27.3082H9.64485V25.1712H5.27968V25.4589H6.02799V31.0069H5.19653V31.2945H9.68642V29.0342H9.47856C9.27069 30.7603 8.81339 31.0069 7.5662 31.0069H6.98417V28.3356H7.31676C7.85721 28.3356 8.18979 28.6644 8.31451 29.6096H8.52238V26.8151H8.31451C8.31451 26.8151 8.27294 28.0069 7.31676 28.0069H7.02575V27.9658Z" fill="#C5281C"/>
<path d="M5.2381 28.0479H2.78529V28.3356H3.61675V30.3082C3.49203 30.8014 2.70214 31.0069 2.49428 31.0069C0.914501 31.0069 1.03922 28.7466 1.03922 28.1301C1.03922 27.5959 0.997647 25.2534 2.49428 25.2534C3.57517 25.2534 4.11562 26.2808 4.32349 27.226H4.48978C4.48978 26.8562 4.48978 25.0069 4.48978 25.0069C4.48978 25.0069 3.74147 25.5411 3.74147 25.5C3.74147 25.5 3.40888 25.0069 2.4527 25.0069C0.623489 25.0069 -0.083252 26.8151 -0.083252 28.089C-0.083252 29.2397 0.457197 31.2534 2.4527 31.2534C3.0763 31.2534 3.49203 30.9247 3.74147 30.5959L4.53135 31.2123V28.2945H5.19652V28.0479H5.2381Z" fill="#C5281C"/>
<path d="M33.8819 28.9932C33.6741 30.7192 33.2168 30.9658 31.9696 30.9658H31.8864V25.4589H32.6763V25.1712H30.0988V25.4589H30.8887V31.0069H30.2651L27.9786 25.0069H27.646C27.646 25.0069 25.7336 30.4315 25.7336 30.4726C25.7336 30.4726 25.6089 30.9247 25.2763 31.0069C24.9853 31.0069 25.0269 30.8836 25.0269 30.8014V29.7329C25.0269 29.4452 24.9853 28.8288 24.7359 28.5411C24.4033 28.2123 23.8628 28.2123 23.8628 28.1712C23.8628 28.1712 25.2763 27.8836 25.2763 26.5685C25.2763 25.6233 24.6112 25.1712 23.5303 25.1301H20.4539V25.4178H21.2437V30.9658H20.4539V31.2534H22.9898V30.9658H22.1999V28.2945H23.2393C25.0685 28.4589 22.9067 31.2534 25.3179 31.2534H26.8145V30.9658C26.7314 30.9658 26.1909 30.9658 26.1494 30.5959C26.1078 30.3082 26.5235 29.3219 26.5235 29.3219H28.6022C28.6022 29.3219 29.2258 30.9658 29.2673 30.9658H28.5606V31.2534H34.173V28.9932H33.8819ZM23.1977 28.0069H22.1999V25.4589H23.4887C24.237 25.5822 24.2786 26.4452 24.2786 26.6918C24.2786 27.3493 23.9876 28.0069 23.1977 28.0069ZM26.6898 29.0753L27.6044 26.4452L28.5606 29.0753H26.6898Z" fill="#C5281C"/>
<path d="M17.3774 25.4178C18.9572 25.4178 19.5808 25.3356 19.8302 27.2671H19.9965V25.1301H13.6774V25.4178H13.8437C14.0516 25.4178 14.592 25.4178 14.6336 25.911V29.4452L11.6819 25.1301H10.0605V25.4178H10.31C10.6426 25.4178 11.0583 25.4178 11.0999 25.911V30.4315C11.0999 30.8836 10.4347 31.0479 10.1437 31.0479V31.2534H12.3471V31.0479C12.0561 31.0479 11.3909 30.8836 11.3909 30.4315V26.4452C12.5549 28.089 14.7583 31.2534 14.7999 31.2534H14.9246V25.911C14.9662 25.4589 15.465 25.4178 15.7145 25.4178H16.4212V30.9658H15.5898V31.2534H20.0796V28.9932H19.8718C19.6639 30.7192 19.2066 30.9658 17.9594 30.9658H17.3774V28.2945H17.71C18.2504 28.2945 18.583 28.6233 18.7077 29.5685H18.9156V26.774H18.7077C18.7077 26.774 18.6662 27.9658 17.71 27.9658H17.419V25.4178H17.3774Z" fill="#C5281C"/>
<path d="M36.9583 25.4589V25.1301H34.4224V25.4589H35.2122V30.9658H34.4224V31.2534H36.9583V30.9658H36.1269V25.4589H36.9583Z" fill="#C5281C"/>
<path d="M30.2652 21.3493L31.0551 21.0616C32.1775 20.6096 32.3438 20.3219 32.2607 19.5822V16.6233C33.0921 18.7603 33.9236 20.2397 35.5449 20.2397C35.7528 20.2397 36.0022 20.1986 36.2517 20.1575L36.8753 20.0342L36.418 19.5411C36.127 19.2534 36.0022 19.0069 35.836 18.7192C35.7528 18.5959 35.7112 18.4726 35.6281 18.3493C35.2539 17.7329 34.3393 17.5274 33.591 17.8562C33.2584 17.1986 32.9258 16.3356 32.5101 15.2671L32.427 15.0616C32.3438 14.8973 32.3022 14.7329 32.2191 14.5685V14.5274C31.9697 13.9521 31.6787 13.4178 31.3876 12.8836C31.0966 12.3904 30.8056 11.9795 30.473 11.6096C29.6 10.6233 28.4775 10.0069 27.1056 9.76027C26.1494 9.59589 25.4843 9.5548 24.6112 9.5137C24.4449 9.5137 24.2371 9.5137 24.0708 9.4726C23.6966 9.43151 22.9067 9.39041 22.1169 9.30822C21.5764 9.26712 21.0775 9.22603 20.6618 9.18493C20.7034 9.06164 20.7034 8.93836 20.7034 8.81507C20.7034 8.65069 20.7034 8.4863 20.6618 8.36301H26.1494C27.5629 8.36301 28.6022 7.74658 29.1843 6.5137C30.5978 6.5137 31.5955 5.85616 32.2191 4.66438H32.427C33.882 4.66438 34.9213 4.00685 35.5449 2.69178L35.7528 2.32192H17.2112C16.0056 2.32192 14.9663 3.10274 14.5506 4.33562V4.37671C14.218 3.5137 13.6775 2.77397 12.9292 2.32192C11.8899 1.70548 10.7258 1.5 9.81124 1.78767C9.52022 1.86986 9.18764 1.99315 8.9382 2.15754C8.73034 2.32192 8.39775 2.5274 8.18989 2.81507C7.94045 3.10274 7.73258 3.4726 7.56629 3.80137C7.44157 3.88356 7.35843 3.96575 7.31685 4.04795L7.10899 4.4589V4.5C6.85955 5.07534 6.52697 5.4863 6.27753 5.81507C6.02809 6.10274 6.02809 6.39041 6.02809 6.5548C6.06966 6.76027 6.15281 6.92466 6.27753 7.04795C6.19438 7.17123 6.15281 7.33562 6.15281 7.4589C6.15281 7.95206 6.56854 8.32192 7.10899 8.32192C7.48315 8.32192 7.81573 8.15754 8.14831 7.91096C8.27303 7.82877 8.64719 7.58219 8.77191 7.58219C8.9382 7.58219 9.06292 7.70548 9.06292 7.86986C9.06292 8.28082 8.56404 8.4863 8.18989 8.4863L7.44157 8.56849C6.90112 8.60959 6.65169 8.89726 6.65169 9.14384C6.65169 9.39041 6.7764 9.55479 6.85955 9.63699L6.90112 9.67808L7.10899 9.84247L6.23595 11.1575C5.65393 10.6233 4.98876 10.3356 4.40674 10.2945C4.03258 10.2945 3.7 10.3767 3.45056 10.6233C3.36742 10.7055 3.32584 10.7466 3.28427 10.8288C2.66067 10.8288 2.1618 11.1575 1.91236 11.5274C1.62135 11.9384 1.74607 12.637 2.07865 13.1712L0 13.7466V23.2808H37V21.3904H30.2652V21.3493ZM35.0461 18.7603C35.1292 18.8836 35.1708 19.0068 35.2539 19.089C35.3371 19.2123 35.4202 19.3356 35.5034 19.5C34.9213 19.4589 34.464 19.1301 34.0899 18.5548C34.4225 18.3904 34.8798 18.5137 35.0461 18.7603ZM27.0225 10.6233C28.2281 10.8288 29.1843 11.363 29.9326 12.1849C30.0989 12.3493 30.2236 12.5548 30.3899 12.7603C28.3944 12.5137 27.6876 12.226 26.5652 10.5411C26.7315 10.5411 26.8562 10.5822 27.0225 10.6233ZM26.1494 7.74658H22.3663C22.6989 7.4589 22.9483 7.08904 23.1562 6.67808H28.2697C27.8539 7.41781 27.1472 7.74658 26.1494 7.74658ZM29.1427 5.93836H25.3596C25.6921 5.65069 25.9831 5.28082 26.191 4.82877H31.3045C30.8888 5.56849 30.182 5.93836 29.1427 5.93836ZM29.4337 3.10274H34.5056C34.0067 3.76027 33.3416 4.08904 32.3854 4.08904H28.6022C28.9348 3.80137 29.2258 3.4726 29.4337 3.10274ZM8.81348 3.26712C8.9382 3.10274 9.14607 2.93836 9.35393 2.77397C9.52022 2.65069 9.76966 2.5274 10.0191 2.4863C10.3933 2.40411 10.809 2.40411 11.2247 2.4863L9.85281 3.30822C9.68652 3.30822 9.52022 3.26712 9.35393 3.26712C9.10449 3.26712 8.89663 3.26712 8.73034 3.30822C8.77191 3.30822 8.77191 3.30822 8.81348 3.26712ZM7.23371 9.18493C7.23371 9.14384 7.27528 9.10274 7.31685 9.10274L7.98202 9.14384C8.77191 9.10274 9.60337 8.77397 9.68652 7.95206C9.68652 7.37671 9.27079 6.84247 8.73034 6.84247C8.43933 6.84247 8.06517 7.04795 7.69101 7.29452C7.44157 7.4589 7.23371 7.58219 7.10899 7.58219C7.02584 7.58219 6.9427 7.5 6.9427 7.4589C6.9427 7.4589 6.9427 7.4589 6.9427 7.41781L7.35843 6.84247L6.98427 6.59589C6.90112 6.5548 6.7764 6.43151 6.7764 6.39041C6.7764 6.34932 6.81798 6.30822 6.81798 6.26712C6.98427 6.10274 7.15056 5.89726 7.31685 5.60959C7.44157 5.44521 7.48315 5.36301 7.64944 5.36301C7.81573 5.36301 7.98202 5.4863 7.98202 5.69178C7.98202 5.81507 8.10674 5.89726 8.27303 5.89726C8.43933 5.89726 8.52247 5.77397 8.60562 5.69178C8.60562 5.69178 8.97978 5.36301 8.77191 5.19863C8.56404 5.03425 7.64944 5.40411 7.89888 4.58219L7.98202 4.4589C8.06517 4.33562 8.52247 4.00685 9.39551 4.00685C9.5618 4.00685 9.72809 4.00685 9.93596 4.04795H10.0607L11.973 2.89726C11.973 2.93836 12.0146 2.97945 12.0146 2.97945C12.0978 3.5548 11.7652 4.21233 11.1831 4.5411L10.9337 4.66438L11.1 5.5274C10.6011 5.69178 10.2685 6.06164 10.2685 6.5137C10.2685 6.67808 10.3101 6.88356 10.3517 7.08904C10.3933 7.37671 10.4764 7.66438 10.4764 7.95206C10.4764 8.85616 9.22921 9.43151 8.18989 9.39041H8.14831C8.10674 9.39041 7.44157 9.34932 7.27528 9.22603C7.23371 9.26712 7.23371 9.22603 7.23371 9.18493ZM2.49438 11.9795C2.66067 11.7329 2.99326 11.5685 3.40899 11.6096L3.74157 11.6507L3.86629 11.363C3.90787 11.2808 3.94944 11.1986 3.99101 11.1575C4.07416 11.0753 4.24045 11.0342 4.40674 11.0342C4.86405 11.0342 5.44607 11.363 5.90337 11.8562C6.06966 12.0205 6.23595 12.2671 6.36067 12.4726C6.40225 12.5137 6.40225 12.5548 6.44382 12.5959C6.48539 12.637 6.52697 12.7192 6.52697 12.7192C6.52697 12.7603 6.7764 13.089 6.7764 13.1301C6.9427 12.9247 7.10899 12.6781 7.23371 12.4726V12.4315C7.19213 12.3493 7.10899 12.226 7.06742 12.1438L7.02584 12.1027C7.02584 12.1027 6.98427 12.0616 6.98427 12.0205C6.9427 11.9384 6.85955 11.8151 6.81798 11.774L7.81573 10.2123C8.06517 10.2534 8.27303 10.2534 8.39775 10.2534H8.43933C9.85281 10.2534 11.3079 9.43151 11.3079 8.11644V8.07534C11.3079 7.70548 11.2247 7.37671 11.1831 7.08904C11.1416 6.88356 11.1 6.71918 11.1 6.63699C11.1 6.4726 11.3079 6.30822 11.5989 6.30822H12.0562L11.8483 5.15753C12.4719 4.70548 12.8876 3.92466 12.8461 3.22603C13.5528 3.76027 14.0101 4.66438 14.0933 5.60959C14.1348 5.89726 14.0517 6.26712 13.9685 6.67808L13.927 6.84247C13.7607 7.5 13.5112 8.19863 13.3865 8.5274L13.2618 8.81507L13.5528 8.97945C14.0517 9.26712 14.3843 9.4726 14.3843 10.1301C14.3843 10.911 13.6775 11.4863 13.0124 11.6096L12.0562 11.774L12.8461 12.3082C13.0955 12.4726 13.2618 12.7603 13.2618 13.0479C13.2618 13.5411 12.8461 13.911 12.3472 13.911H12.0562L11.973 14.1575C11.682 15.0616 11.391 15.5137 10.3933 15.637C10.3933 15.3493 10.3933 15.0616 10.3933 14.6918C10.3933 14.6096 10.3933 14.363 10.3933 14.2808L10.3517 13.4178L9.72809 14.0342C9.52022 14.2397 9.14607 14.4041 8.73034 14.4863V13.7466L4.36517 12.5959L2.82697 13.0068C2.49438 12.6781 2.41124 12.1027 2.49438 11.9795ZM1.24719 21.3493L4.40674 20.5274L7.56629 21.3493H1.24719ZM7.98202 20.6918L4.36517 19.7466L0.748315 20.6918V14.3219L4.36517 13.3767L7.98202 14.3219V20.6918ZM9.68652 19.4589C9.35393 19.911 9.31236 20.5685 9.5618 21.3493H8.77191V15.2671C9.06292 15.226 9.35393 15.1438 9.64494 15.0205C9.64494 15.2671 9.60337 15.5137 9.5618 15.7603C9.5618 15.8425 9.52022 15.8836 9.52022 15.9658L9.43708 16.4178H9.89438C10.5596 16.4178 11.0584 16.2945 11.4742 16.1301V18.6781C11.4742 18.7603 11.4326 18.8014 11.3494 18.8014H11.2247C10.5596 18.7603 9.97753 19.0069 9.68652 19.4589ZM18.0011 19.6233C17.7101 19.9521 17.4607 20.4863 17.627 21.3493H12.9292C13.4281 21.3082 13.8022 21.1849 14.0517 20.9384C14.3427 20.6096 14.3843 20.1986 14.3843 19.8699C14.3843 19.8288 14.4258 19.7466 14.6753 19.6233L15.091 19.4589L14.8416 19.089C14.4258 18.4726 14.6337 17.1575 14.7584 16.4178H14.8C16.3798 16.4178 17.4191 16.089 18.5 15.7603C18.791 15.6781 19.082 15.5959 19.373 15.4726C19.373 15.4726 19.7056 15.3904 20.1213 15.2671L21.6595 17.774V17.8151C21.8258 18.0205 21.8258 18.1849 21.5348 18.4726L20.7865 19.2945L19.5393 19.0479C18.9989 18.9658 18.3753 19.2123 18.0011 19.6233ZM18.4169 21.3493C18.2921 20.8151 18.3337 20.4041 18.5831 20.1164C18.8326 19.8288 19.1652 19.7877 19.4562 19.7877L20.9112 20.0342H20.9528H21.1607L22.2 18.9247C22.3663 18.7192 22.9067 18.1027 22.3663 17.3219L20.9944 15.1027C21.2022 15.0616 21.4517 15.0616 21.6595 15.0616C21.6595 15.0616 22.3663 15.0616 23.1146 15.4726C23.1978 15.6781 23.364 15.9658 23.4888 16.2945C23.7798 16.8699 24.1539 17.6096 24.2371 17.8973C24.2787 17.9795 24.3618 18.2671 24.0292 18.637L21.4101 21.3904H18.4169V21.3493ZM27.3966 21.3493H22.4079L24.5281 19.1301C24.9438 18.6781 25.1101 18.1438 24.9022 17.6507C24.8191 17.363 24.5281 16.7877 24.2371 16.1712C25.0685 16.5411 26.3573 16.911 28.9764 17.1164C29.309 17.1575 29.3921 17.2397 29.4337 17.5274L29.5584 18.637L28.1865 18.9247C27.7292 19.0069 27.3551 19.2945 27.1888 19.7466C27.0225 20.2397 27.1056 20.8151 27.3966 21.3493ZM27.9371 20.0342C28.0202 19.8288 28.1449 19.7055 28.3528 19.6644L30.3899 19.2123L30.2236 17.4041V17.363C30.182 17.1164 30.0157 16.4178 29.0596 16.3356C25.4011 16.0479 24.5697 15.5137 23.6551 14.9384L23.6135 14.8973C22.6573 14.2808 21.7011 14.2808 21.618 14.2808C20.5787 14.2808 19.2899 14.6918 19.1652 14.7329C18.8326 14.8151 18.5416 14.9384 18.2506 15.0205C17.0865 15.3904 16.1303 15.7192 14.4674 15.637H14.1764L14.0933 15.9247C14.0517 16.1301 13.5528 17.9795 14.0101 19.1301C13.5944 19.4589 13.5944 19.7877 13.5944 19.8699C13.5944 20.2808 13.5112 20.363 13.4697 20.4041C13.2618 20.6096 12.6382 20.6096 12.0978 20.6096H11.8899L11.7652 20.774C11.4326 21.226 10.7258 21.3493 10.2685 21.226C10.0607 20.6096 10.0607 20.1575 10.2685 19.8699C10.518 19.5411 10.9753 19.5 11.1831 19.5H11.3079C11.8067 19.5 12.1809 19.089 12.1809 18.637V15.3904C12.3472 15.1849 12.4303 14.8973 12.5551 14.6096C13.3449 14.4863 13.9685 13.8288 13.9685 13.0068C13.9685 12.6781 13.8854 12.3904 13.7191 12.1438C14.4674 11.774 15.091 11.0753 15.091 10.1301C15.091 9.18493 14.5921 8.73288 14.1348 8.4863C14.2596 8.11644 14.4674 7.5 14.6337 6.84247L15.2573 4.58219C15.5483 3.67808 16.2966 3.10274 17.1697 3.10274H28.4775C27.9787 3.76027 27.3135 4.08904 26.3573 4.08904H19.5809L19.2067 4.82877H25.3596C24.8607 5.56849 24.1539 5.93836 23.1562 5.93836H18.7079L18.3337 6.67808H22.2831C21.7843 7.41781 21.1191 7.74658 20.1213 7.74658H17.7101L17.336 8.4863H19.8719C19.9135 8.5274 19.9551 8.65069 19.9551 8.93836C19.9551 9.43151 19.5393 9.80137 19.0404 9.80137C18.8742 9.80137 18.7079 9.76027 18.4584 9.63699C18.3337 9.59589 18.2506 9.5548 18.1258 9.5137L17.5438 10.0479C17.6685 10.089 17.7517 10.1301 17.8764 10.1712C18.3753 10.3767 18.6663 10.5 19.0404 10.5C19.4978 10.5 19.9135 10.2945 20.2461 10.0069C20.6618 10.0479 21.3685 10.089 22.0753 10.1301C22.9067 10.2123 23.6551 10.2534 24.0708 10.2945C24.2787 10.2945 24.4449 10.2945 24.6528 10.3356C24.9854 10.3356 25.318 10.3767 25.609 10.3767C27.1472 12.8425 27.9371 13.1712 30.9303 13.5411C31.1382 13.911 31.3461 14.3219 31.5124 14.7329V19.5411V19.5822C31.5124 19.7877 31.5124 19.8699 31.5124 19.911C31.3876 20.0342 30.9303 20.2397 30.8056 20.2808L28.2697 21.3082C27.9371 20.8562 27.8124 20.4041 27.9371 20.0342Z" fill="#C5281C"/>
<path d="M7.192 15.3082L4.78076 14.6918V15.4726L7.192 16.089V15.3082Z" fill="#C5281C"/>
<path d="M1.57959 16.089L3.99083 15.4726V14.6918L1.57959 15.3082V16.089Z" fill="#C5281C"/>
<path d="M1.57959 17.6507L3.99083 17.0342V16.2534L1.57959 16.8699V17.6507Z" fill="#C5281C"/>
<path d="M7.192 16.8699L4.78076 16.2534V17.0342L7.192 17.6507V16.8699Z" fill="#C5281C"/>
<path d="M7.192 18.4315L4.78076 17.8151V18.5959L7.192 19.2123V18.4315Z" fill="#C5281C"/>
<path d="M1.57959 19.2123L3.99083 18.5959V17.8151L1.57959 18.4315V19.2123Z" fill="#C5281C"/>
</g>
<path d="M50 32.5H49V0.5H50V32.5Z" fill="#D1D5DB"/>
<path d="M50 32.5H49V0.5H50V32.5Z" stroke="#E5E7EB"/>
<path d="M66.66 15.74H68.52C69.88 15.74 70.46 15.06 70.46 13.98C70.46 12.9 69.88 12.22 68.52 12.22H66.66V15.74ZM73.94 13.98C73.94 16.3 72.36 18.46 68.78 18.46H66.66V23.5H63.24V9.46H68.78C72.22 9.46 73.94 11.4 73.94 13.98ZM79.1405 15.74H81.0005C82.3605 15.74 82.9405 15.06 82.9405 13.98C82.9405 12.9 82.3605 12.22 81.0005 12.22H79.1405V15.74ZM86.4205 13.98C86.4205 16.3 84.8405 18.46 81.2605 18.46H79.1405V23.5H75.7205V9.46H81.2605C84.7005 9.46 86.4205 11.4 86.4205 13.98ZM87.4409 12.2V9.46H98.3009V12.2H94.5809V23.5H91.1609V12.2H87.4409ZM108.617 23.5L105.757 19.2L103.237 23.5H99.3573L103.857 16.36L99.2573 9.46H103.237L106.057 13.7L108.537 9.46H112.417L107.957 16.54L112.597 23.5H108.617ZM125.113 9.3C128.473 9.3 130.913 11.02 131.653 13.9H127.872C127.353 12.96 126.393 12.46 125.113 12.46C122.913 12.46 121.453 14.02 121.453 16.46C121.453 19.06 122.933 20.58 125.393 20.58C127.093 20.58 128.273 19.68 128.793 18.1H124.453V15.58H131.893V18.76C131.173 21.18 128.833 23.6 125.133 23.6C120.933 23.6 117.972 20.66 117.972 16.46C117.972 12.26 120.913 9.3 125.113 9.3ZM138.707 14.92C137.587 14.92 136.727 15.6 136.527 16.84H140.807C140.807 15.62 139.847 14.92 138.707 14.92ZM144.047 19.8C143.507 21.98 141.527 23.66 138.747 23.66C135.467 23.66 133.107 21.46 133.107 17.92C133.107 14.38 135.427 12.18 138.747 12.18C142.007 12.18 144.307 14.34 144.307 17.74C144.307 18.06 144.287 18.4 144.247 18.74H136.507C136.627 20.2 137.527 20.88 138.627 20.88C139.587 20.88 140.127 20.4 140.407 19.8H144.047ZM153.811 23.5V17.44C153.811 15.92 152.971 15.08 151.671 15.08C150.371 15.08 149.531 15.92 149.531 17.44V23.5H146.111V12.34H149.531V13.82C150.211 12.88 151.411 12.22 152.911 12.22C155.491 12.22 157.211 13.98 157.211 16.98V23.5H153.811ZM164.508 14.92C163.388 14.92 162.528 15.6 162.328 16.84H166.608C166.608 15.62 165.648 14.92 164.508 14.92ZM169.848 19.8C169.308 21.98 167.328 23.66 164.548 23.66C161.268 23.66 158.908 21.46 158.908 17.92C158.908 14.38 161.228 12.18 164.548 12.18C167.808 12.18 170.108 14.34 170.108 17.74C170.108 18.06 170.088 18.4 170.048 18.74H162.308C162.428 20.2 163.328 20.88 164.428 20.88C165.388 20.88 165.928 20.4 166.208 19.8H169.848ZM175.332 18.32V23.5H171.912V12.34H175.332V14.2C176.112 13.02 177.332 12.22 178.832 12.22V15.84H177.892C176.272 15.84 175.332 16.4 175.332 18.32ZM179.787 17.9C179.787 14.38 181.967 12.18 184.707 12.18C186.367 12.18 187.547 12.94 188.147 13.92V12.34H191.567V23.5H188.147V21.92C187.527 22.9 186.347 23.66 184.687 23.66C181.967 23.66 179.787 21.42 179.787 17.9ZM188.147 17.92C188.147 16.14 187.007 15.16 185.707 15.16C184.427 15.16 183.267 16.12 183.267 17.9C183.267 19.68 184.427 20.68 185.707 20.68C187.007 20.68 188.147 19.7 188.147 17.92ZM194.581 19.62V15.18H193.221V12.34H194.581V9.62H198.001V12.34H200.241V15.18H198.001V19.66C198.001 20.32 198.281 20.6 199.041 20.6H200.261V23.5H198.521C196.201 23.5 194.581 22.52 194.581 19.62ZM213.086 17.92C213.086 21.46 210.526 23.66 207.246 23.66C203.966 23.66 201.486 21.46 201.486 17.92C201.486 14.38 204.026 12.18 207.286 12.18C210.566 12.18 213.086 14.38 213.086 17.92ZM204.966 17.92C204.966 19.8 206.006 20.7 207.246 20.7C208.466 20.7 209.606 19.8 209.606 17.92C209.606 16.02 208.486 15.14 207.286 15.14C206.046 15.14 204.966 16.02 204.966 17.92ZM218.32 18.32V23.5H214.9V12.34H218.32V14.2C219.1 13.02 220.32 12.22 221.82 12.22V15.84H220.88C219.26 15.84 218.32 16.4 218.32 18.32Z" fill="#111827"/>
<defs>
<clipPath id="clip0_1_161">
<rect width="37" height="30" fill="white" transform="translate(0 1.5)"/>
</clipPath>
</defs>
</svg>
